<mxfile host="app.diagrams.net" agent="Mozilla/5.0 (Windows NT 10.0; Win64; x64) AppleWebKit/537.36 (KHTML, like Gecko) Chrome/139.0.0.0 Safari/537.36" version="27.1.3">
  <diagram name="Page-1" id="dHjX06r3dBSnxEy9NThe">
    <mxGraphModel dx="566" dy="529" grid="1" gridSize="10" guides="1" tooltips="1" connect="1" arrows="1" fold="1" page="1" pageScale="1" pageWidth="850" pageHeight="1100" math="0" shadow="0">
      <root>
        <mxCell id="0" />
        <mxCell id="1" parent="0" />
        <mxCell id="JuSzZ94AhskLGvyLMU-I-2" value="q_proj&lt;div&gt;(ColumnParallel)&lt;/div&gt;" style="ellipse;whiteSpace=wrap;html=1;" vertex="1" parent="1">
          <mxGeometry x="85" y="220" width="110" height="40" as="geometry" />
        </mxCell>
        <mxCell id="JuSzZ94AhskLGvyLMU-I-3" value="q_down_proj&lt;div&gt;(ColumnParallel)&lt;/div&gt;" style="ellipse;whiteSpace=wrap;html=1;" vertex="1" parent="1">
          <mxGeometry x="95" y="520" width="110" height="40" as="geometry" />
        </mxCell>
        <mxCell id="JuSzZ94AhskLGvyLMU-I-5" style="edgeStyle=orthogonalEdgeStyle;rounded=0;orthogonalLoop=1;jettySize=auto;html=1;" edge="1" parent="1" source="JuSzZ94AhskLGvyLMU-I-4" target="JuSzZ94AhskLGvyLMU-I-3">
          <mxGeometry relative="1" as="geometry" />
        </mxCell>
        <mxCell id="JuSzZ94AhskLGvyLMU-I-4" value="s, b, n*h" style="rounded=1;whiteSpace=wrap;html=1;" vertex="1" parent="1">
          <mxGeometry x="90" y="590" width="120" height="20" as="geometry" />
        </mxCell>
        <mxCell id="JuSzZ94AhskLGvyLMU-I-6" value="H, q_lora_rank/tp" style="text;html=1;align=center;verticalAlign=middle;whiteSpace=wrap;rounded=0;" vertex="1" parent="1">
          <mxGeometry x="210" y="530" width="95" height="20" as="geometry" />
        </mxCell>
        <mxCell id="JuSzZ94AhskLGvyLMU-I-10" style="edgeStyle=orthogonalEdgeStyle;rounded=0;orthogonalLoop=1;jettySize=auto;html=1;entryX=0.5;entryY=1;entryDx=0;entryDy=0;" edge="1" parent="1" source="JuSzZ94AhskLGvyLMU-I-7" target="JuSzZ94AhskLGvyLMU-I-9">
          <mxGeometry relative="1" as="geometry" />
        </mxCell>
        <mxCell id="JuSzZ94AhskLGvyLMU-I-7" value="s, b, q_lora_rank/tp" style="rounded=1;whiteSpace=wrap;html=1;" vertex="1" parent="1">
          <mxGeometry x="85" y="450" width="120" height="30" as="geometry" />
        </mxCell>
        <mxCell id="JuSzZ94AhskLGvyLMU-I-8" style="edgeStyle=orthogonalEdgeStyle;rounded=0;orthogonalLoop=1;jettySize=auto;html=1;entryX=0.542;entryY=1;entryDx=0;entryDy=0;entryPerimeter=0;" edge="1" parent="1" source="JuSzZ94AhskLGvyLMU-I-3" target="JuSzZ94AhskLGvyLMU-I-7">
          <mxGeometry relative="1" as="geometry" />
        </mxCell>
        <mxCell id="JuSzZ94AhskLGvyLMU-I-9" value="AG(tp)" style="ellipse;whiteSpace=wrap;html=1;" vertex="1" parent="1">
          <mxGeometry x="112.5" y="410" width="65" height="20" as="geometry" />
        </mxCell>
        <mxCell id="JuSzZ94AhskLGvyLMU-I-16" style="edgeStyle=orthogonalEdgeStyle;rounded=0;orthogonalLoop=1;jettySize=auto;html=1;entryX=0.5;entryY=1;entryDx=0;entryDy=0;" edge="1" parent="1" source="JuSzZ94AhskLGvyLMU-I-12" target="JuSzZ94AhskLGvyLMU-I-14">
          <mxGeometry relative="1" as="geometry" />
        </mxCell>
        <mxCell id="JuSzZ94AhskLGvyLMU-I-12" value="s, b, q_lora_rank" style="rounded=1;whiteSpace=wrap;html=1;" vertex="1" parent="1">
          <mxGeometry x="80" y="360" width="120" height="20" as="geometry" />
        </mxCell>
        <mxCell id="JuSzZ94AhskLGvyLMU-I-13" style="edgeStyle=orthogonalEdgeStyle;rounded=0;orthogonalLoop=1;jettySize=auto;html=1;entryX=0.536;entryY=0.952;entryDx=0;entryDy=0;entryPerimeter=0;" edge="1" parent="1" source="JuSzZ94AhskLGvyLMU-I-9" target="JuSzZ94AhskLGvyLMU-I-12">
          <mxGeometry relative="1" as="geometry" />
        </mxCell>
        <mxCell id="JuSzZ94AhskLGvyLMU-I-18" style="edgeStyle=orthogonalEdgeStyle;rounded=0;orthogonalLoop=1;jettySize=auto;html=1;entryX=0.5;entryY=1;entryDx=0;entryDy=0;" edge="1" parent="1" source="JuSzZ94AhskLGvyLMU-I-14" target="JuSzZ94AhskLGvyLMU-I-17">
          <mxGeometry relative="1" as="geometry" />
        </mxCell>
        <mxCell id="JuSzZ94AhskLGvyLMU-I-14" value="Scatter(tp)" style="ellipse;whiteSpace=wrap;html=1;" vertex="1" parent="1">
          <mxGeometry x="107.5" y="320" width="65" height="20" as="geometry" />
        </mxCell>
        <mxCell id="JuSzZ94AhskLGvyLMU-I-17" value="s/tp, b, q_lora_rank" style="rounded=1;whiteSpace=wrap;html=1;" vertex="1" parent="1">
          <mxGeometry x="80" y="280" width="120" height="20" as="geometry" />
        </mxCell>
      </root>
    </mxGraphModel>
  </diagram>
</mxfile>
